# xmcd
#
# Track frame offsets:
#	150
#	10865
#	29995
#	47290
#	57735
#	72630
#	82710
#	94260
#	107300
#	120165
#	132065
#	151120
#	166860
#	177535
#	187190
#	211380
#	224850
#	237275
#	253082
#	262915
#	273265
#	283190
#	306525
#
# Disc length: 4380 seconds
#
# Revision: 1
# Processed by: cddbd v1.5PL3 Copyright (c) Steve Scherf et al.
# Submitted via: EasyCDDAExtractor 6.2.0.3
#
DISCID=52111a17
DTITLE=Vieira e Vieirinha - Dose Dupla
DYEAR=1900
DGENRE=Country
TTITLE0=Rapaz Solteiro
TTITLE1=Italiana
TTITLE2=Sertão da Ribeira
TTITLE3=Aproveite a Mocidade
TTITLE4=Eu Gosto
TTITLE5=Tiro a Queima Bucha
TTITLE6=Pecadora Sem Pecado
TTITLE7=Pé de Chinelo
TTITLE8=O Sertão e a Cidade
TTITLE9=Terra Amada
TTITLE10=Os Brutos Também Amam
TTITLE11=Adeus Querida
TTITLE12=Sou Carinhoso
TTITLE13=Coração de Ouro
TTITLE14=Gordinha e Pequena
TTITLE15=No Tempo Que eu Namorava
TTITLE16=O Meu Bem Falou
TTITLE17=Cabelos Cortados
TTITLE18=Quatro Coisas
TTITLE19=Paulista e Mineiro
TTITLE20=Eu Acho Bom
TTITLE21=Tenho Fé
TTITLE22=Pedido a N.S. Aparecida
EXTD=
EXTT0=
EXTT1=
EXTT2=
EXTT3=
EXTT4=
EXTT5=
EXTT6=
EXTT7=
EXTT8=
EXTT9=
EXTT10=
EXTT11=
EXTT12=
EXTT13=
EXTT14=
EXTT15=
EXTT16=
EXTT17=
EXTT18=
EXTT19=
EXTT20=
EXTT21=
EXTT22=
PLAYORDER=
